<?xml version="1.0" encoding="UTF-8" standalone="no"?>
<svg width="295.275mm" height="238.919mm"
 viewBox="0 0 1115 903"
 xmlns="http://www.w3.org/2000/svg" xmlns:xlink="http://www.w3.org/1999/xlink"  version="1.2" baseProfile="tiny">
<title>Qt Svg Document</title>
<desc>Generated with Qt</desc>
<defs>
</defs>
<g fill="none" stroke="black" stroke-width="1" fill-rule="evenodd" stroke-linecap="square" stroke-linejoin="bevel" >

<g fill="none" stroke="#000000" stroke-opacity="1" stroke-width="1" stroke-linecap="square" stroke-linejoin="bevel" transform="matrix(1,0,0,1,0,0)"
font-family="MS Shell Dlg 2" font-size="11" font-weight="400" font-style="normal"
>
</g>

<g fill="none" stroke="#000000" stroke-opacity="1" stroke-width="1" stroke-linecap="square" stroke-linejoin="bevel" transform="matrix(1,0,0,1,0,0)"
font-family="MS Shell Dlg 2" font-size="11" font-weight="400" font-style="normal"
>
</g>

<g fill="none" stroke="#000000" stroke-opacity="1" stroke-width="1" stroke-linecap="square" stroke-linejoin="bevel" transform="matrix(0.997753,0,0,0.997753,8206.07,394.559)"
font-family="MS Shell Dlg 2" font-size="11" font-weight="400" font-style="normal"
>
</g>

<g fill="#aa8822" fill-opacity="0" stroke="none" transform="matrix(0.997753,0,0,0.997753,8206.07,394.559)"
font-family="MS Shell Dlg 2" font-size="11" font-weight="400" font-style="normal"
>
<path vector-effect="non-scaling-stroke" fill-rule="evenodd" d="M-8224.55,-395.447 L-7106.83,-395.447 L-7106.83,509.587 L-8224.55,509.587 L-8224.55,-395.447"/>
</g>

<g fill="none" stroke="#000000" stroke-opacity="1" stroke-width="1" stroke-linecap="square" stroke-linejoin="bevel" transform="matrix(0.997753,0,0,0.997753,8206.07,394.559)"
font-family="MS Shell Dlg 2" font-size="11" font-weight="400" font-style="normal"
>
</g>

<g fill="none" stroke="#000000" stroke-opacity="1" stroke-width="1" stroke-linecap="square" stroke-linejoin="bevel" transform="matrix(0.997753,0,0,0.997753,29.436,354.599)"
font-family="MS Shell Dlg 2" font-size="11" font-weight="400" font-style="normal"
>
</g>

<g fill="#bbbbbb" fill-opacity="1" stroke="#ff0000" stroke-opacity="1" stroke-width="1" stroke-linecap="square" stroke-linejoin="bevel" transform="matrix(0.997753,0,0,0.997753,29.436,354.599)"
font-family="MS Shell Dlg 2" font-size="11" font-weight="400" font-style="normal"
>
<path vector-effect="non-scaling-stroke" fill-rule="evenodd" d="M0,0 L160,0 L160,61 L0,61 L0,0"/>
</g>

<g fill="#bbbbbb" fill-opacity="1" stroke="#000000" stroke-opacity="1" stroke-width="1" stroke-linecap="square" stroke-linejoin="bevel" transform="matrix(0.997753,0,0,0.997753,29.436,354.599)"
font-family="Sans Serif" font-size="34.6667" font-weight="700" font-style="normal"
>
<text fill="#000000" fill-opacity="1" stroke="none" xml:space="preserve" x="26" y="42.0156" font-family="Sans Serif" font-size="34.6667" font-weight="700" font-style="normal"
 >Object</text>
</g>

<g fill="none" stroke="#000000" stroke-opacity="1" stroke-width="1" stroke-linecap="square" stroke-linejoin="bevel" transform="matrix(0.997753,0,0,0.997753,29.436,354.599)"
font-family="MS Shell Dlg 2" font-size="11" font-weight="400" font-style="normal"
>
</g>

<g fill="none" stroke="#000000" stroke-opacity="1" stroke-width="1" stroke-linecap="square" stroke-linejoin="bevel" transform="matrix(0.997753,0,0,0.997753,8206.07,394.559)"
font-family="MS Shell Dlg 2" font-size="11" font-weight="400" font-style="normal"
>
</g>

<g fill="none" stroke="#000000" stroke-opacity="1" stroke-width="1" stroke-linecap="square" stroke-linejoin="bevel" transform="matrix(0.997753,0,0,0.997753,8206.07,394.559)"
font-family="MS Shell Dlg 2" font-size="11" font-weight="400" font-style="normal"
>
</g>

<g fill="none" stroke="#000000" stroke-opacity="1" stroke-width="1" stroke-linecap="square" stroke-linejoin="bevel" transform="matrix(5.38089e-15,0.997753,-0.997753,5.38089e-15,199.787,359.837)"
font-family="MS Shell Dlg 2" font-size="11" font-weight="400" font-style="normal"
>
</g>

<g fill="#aa8822" fill-opacity="0" stroke="#ff0000" stroke-opacity="1" stroke-width="1" stroke-linecap="round" stroke-linejoin="round" transform="matrix(5.38089e-15,0.997753,-0.997753,5.38089e-15,199.787,359.837)"
font-family="MS Shell Dlg 2" font-size="11" font-weight="400" font-style="normal"
>
<path vector-effect="non-scaling-stroke" fill-rule="evenodd" d="M-6,0 L0,10 L6,0 L-6,0"/>
</g>

<g fill="none" stroke="#000000" stroke-opacity="1" stroke-width="1" stroke-linecap="square" stroke-linejoin="bevel" transform="matrix(5.38089e-15,0.997753,-0.997753,5.38089e-15,199.787,359.837)"
font-family="MS Shell Dlg 2" font-size="11" font-weight="400" font-style="normal"
>
</g>

<g fill="none" stroke="#000000" stroke-opacity="1" stroke-width="1" stroke-linecap="square" stroke-linejoin="bevel" transform="matrix(0.997753,0,0,0.997753,8206.07,394.559)"
font-family="MS Shell Dlg 2" font-size="11" font-weight="400" font-style="normal"
>
</g>

<g fill="none" stroke="#ff0000" stroke-opacity="1" stroke-width="1" stroke-linecap="round" stroke-linejoin="round" transform="matrix(0.997753,0,0,0.997753,8206.07,394.559)"
font-family="MS Shell Dlg 2" font-size="11" font-weight="400" font-style="normal"
>
<path vector-effect="non-scaling-stroke" fill-rule="evenodd" d="M-7837.25,-34.8 L-8024.31,-34.8"/>
</g>

<g fill="none" stroke="#000000" stroke-opacity="1" stroke-width="1" stroke-linecap="square" stroke-linejoin="bevel" transform="matrix(0.997753,0,0,0.997753,8206.07,394.559)"
font-family="MS Shell Dlg 2" font-size="11" font-weight="400" font-style="normal"
>
</g>

<g fill="none" stroke="#000000" stroke-opacity="1" stroke-width="1" stroke-linecap="square" stroke-linejoin="bevel" transform="matrix(0.997753,0,0,0.997753,355.156,143.977)"
font-family="MS Shell Dlg 2" font-size="11" font-weight="400" font-style="normal"
>
</g>

<g fill="#65c874" fill-opacity="1" stroke="#ff0000" stroke-opacity="1" stroke-width="1" stroke-linecap="square" stroke-linejoin="bevel" transform="matrix(0.997753,0,0,0.997753,355.156,143.977)"
font-family="MS Shell Dlg 2" font-size="11" font-weight="400" font-style="normal"
>
<path vector-effect="non-scaling-stroke" fill-rule="evenodd" d="M0,0 L237,0 L237,89 L0,89 L0,0"/>
</g>

<g fill="#65c874" fill-opacity="1" stroke="#000000" stroke-opacity="1" stroke-width="1" stroke-linecap="square" stroke-linejoin="bevel" transform="matrix(0.997753,0,0,0.997753,355.156,143.977)"
font-family="Sans Serif" font-size="34.6667" font-weight="700" font-style="normal"
>
<text fill="#000000" fill-opacity="1" stroke="none" xml:space="preserve" x="36.5" y="56.0469" font-family="Sans Serif" font-size="34.6667" font-weight="700" font-style="normal"
 >AdvImage</text>
</g>

<g fill="none" stroke="#000000" stroke-opacity="1" stroke-width="1" stroke-linecap="square" stroke-linejoin="bevel" transform="matrix(0.997753,0,0,0.997753,355.156,143.977)"
font-family="MS Shell Dlg 2" font-size="11" font-weight="400" font-style="normal"
>
</g>

<g fill="none" stroke="#000000" stroke-opacity="1" stroke-width="1" stroke-linecap="square" stroke-linejoin="bevel" transform="matrix(0.997753,0,0,0.997753,8206.07,394.559)"
font-family="MS Shell Dlg 2" font-size="11" font-weight="400" font-style="normal"
>
</g>

<g fill="none" stroke="#000000" stroke-opacity="1" stroke-width="1" stroke-linecap="square" stroke-linejoin="bevel" transform="matrix(0.997753,0,0,0.997753,8206.07,394.559)"
font-family="MS Shell Dlg 2" font-size="11" font-weight="400" font-style="normal"
>
</g>

<g fill="none" stroke="#000000" stroke-opacity="1" stroke-width="1" stroke-linecap="square" stroke-linejoin="bevel" transform="matrix(0.997753,0,0,0.997753,487.175,324.915)"
font-family="MS Shell Dlg 2" font-size="11" font-weight="400" font-style="normal"
>
</g>

<g fill="#aa8822" fill-opacity="0" stroke="#ff0000" stroke-opacity="1" stroke-width="1" stroke-linecap="round" stroke-linejoin="round" transform="matrix(0.997753,0,0,0.997753,487.175,324.915)"
font-family="MS Shell Dlg 2" font-size="11" font-weight="400" font-style="normal"
>
<path vector-effect="non-scaling-stroke" fill-rule="evenodd" d="M-6,0 L0,10 L6,0 L-6,0"/>
</g>

<g fill="none" stroke="#000000" stroke-opacity="1" stroke-width="1" stroke-linecap="square" stroke-linejoin="bevel" transform="matrix(0.997753,0,0,0.997753,487.175,324.915)"
font-family="MS Shell Dlg 2" font-size="11" font-weight="400" font-style="normal"
>
</g>

<g fill="none" stroke="#000000" stroke-opacity="1" stroke-width="1" stroke-linecap="square" stroke-linejoin="bevel" transform="matrix(0.997753,0,0,0.997753,8206.07,394.559)"
font-family="MS Shell Dlg 2" font-size="11" font-weight="400" font-style="normal"
>
</g>

<g fill="none" stroke="#ff0000" stroke-opacity="1" stroke-width="1" stroke-linecap="round" stroke-linejoin="round" transform="matrix(0.997753,0,0,0.997753,8206.07,394.559)"
font-family="MS Shell Dlg 2" font-size="11" font-weight="400" font-style="normal"
>
<path vector-effect="non-scaling-stroke" fill-rule="evenodd" d="M-7736.28,-161.343 L-7736.28,-69.8"/>
</g>

<g fill="none" stroke="#000000" stroke-opacity="1" stroke-width="1" stroke-linecap="square" stroke-linejoin="bevel" transform="matrix(0.997753,0,0,0.997753,8206.07,394.559)"
font-family="MS Shell Dlg 2" font-size="11" font-weight="400" font-style="normal"
>
</g>

<g fill="none" stroke="#000000" stroke-opacity="1" stroke-width="1" stroke-linecap="square" stroke-linejoin="bevel" transform="matrix(0.997753,0,0,0.997753,8206.07,394.559)"
font-family="MS Shell Dlg 2" font-size="11" font-weight="400" font-style="normal"
>
</g>

<g fill="none" stroke="#000000" stroke-opacity="1" stroke-width="1" stroke-linecap="square" stroke-linejoin="bevel" transform="matrix(0.997753,0,0,0.997753,8206.07,394.559)"
font-family="MS Shell Dlg 2" font-size="11" font-weight="400" font-style="normal"
>
</g>

<g fill="none" stroke="#000000" stroke-opacity="1" stroke-width="1" stroke-linecap="square" stroke-linejoin="bevel" transform="matrix(0.647699,0.758944,-0.758944,0.647699,580.11,328.416)"
font-family="MS Shell Dlg 2" font-size="11" font-weight="400" font-style="normal"
>
</g>

<g fill="#aa8822" fill-opacity="0" stroke="#ff0000" stroke-opacity="1" stroke-width="1" stroke-linecap="round" stroke-linejoin="round" transform="matrix(0.647699,0.758944,-0.758944,0.647699,580.11,328.416)"
font-family="MS Shell Dlg 2" font-size="11" font-weight="400" font-style="normal"
>
<path vector-effect="non-scaling-stroke" fill-rule="evenodd" d="M-6,0 L0,10 L6,0 L-6,0"/>
</g>

<g fill="none" stroke="#000000" stroke-opacity="1" stroke-width="1" stroke-linecap="square" stroke-linejoin="bevel" transform="matrix(0.647699,0.758944,-0.758944,0.647699,580.11,328.416)"
font-family="MS Shell Dlg 2" font-size="11" font-weight="400" font-style="normal"
>
</g>

<g fill="none" stroke="#000000" stroke-opacity="1" stroke-width="1" stroke-linecap="square" stroke-linejoin="bevel" transform="matrix(0.997753,0,0,0.997753,8206.07,394.559)"
font-family="MS Shell Dlg 2" font-size="11" font-weight="400" font-style="normal"
>
</g>

<g fill="none" stroke="#ff0000" stroke-opacity="1" stroke-width="1" stroke-linecap="round" stroke-linejoin="round" transform="matrix(0.997753,0,0,0.997753,8206.07,394.559)"
font-family="MS Shell Dlg 2" font-size="11" font-weight="400" font-style="normal"
>
<path vector-effect="non-scaling-stroke" fill-rule="evenodd" d="M-7469.58,-214.41 L-7643.14,-66.2916"/>
</g>

<g fill="none" stroke="#000000" stroke-opacity="1" stroke-width="1" stroke-linecap="square" stroke-linejoin="bevel" transform="matrix(0.997753,0,0,0.997753,8206.07,394.559)"
font-family="MS Shell Dlg 2" font-size="11" font-weight="400" font-style="normal"
>
</g>

<g fill="none" stroke="#000000" stroke-opacity="1" stroke-width="1" stroke-linecap="square" stroke-linejoin="bevel" transform="matrix(0.997753,0,0,0.997753,8206.07,394.559)"
font-family="MS Shell Dlg 2" font-size="11" font-weight="400" font-style="normal"
>
</g>

<g fill="none" stroke="#000000" stroke-opacity="1" stroke-width="1" stroke-linecap="square" stroke-linejoin="bevel" transform="matrix(0.997753,0,0,0.997753,8206.07,394.559)"
font-family="MS Shell Dlg 2" font-size="11" font-weight="400" font-style="normal"
>
</g>

<g fill="none" stroke="#000000" stroke-opacity="1" stroke-width="1" stroke-linecap="square" stroke-linejoin="bevel" transform="matrix(-0.997753,1.0786e-14,-1.0786e-14,-0.997753,116.462,425.439)"
font-family="MS Shell Dlg 2" font-size="11" font-weight="400" font-style="normal"
>
</g>

<g fill="#aa8822" fill-opacity="0" stroke="#ff0000" stroke-opacity="1" stroke-width="1" stroke-linecap="round" stroke-linejoin="round" transform="matrix(-0.997753,1.0786e-14,-1.0786e-14,-0.997753,116.462,425.439)"
font-family="MS Shell Dlg 2" font-size="11" font-weight="400" font-style="normal"
>
<path vector-effect="non-scaling-stroke" fill-rule="evenodd" d="M-6,0 L0,10 L6,0 L-6,0"/>
</g>

<g fill="none" stroke="#000000" stroke-opacity="1" stroke-width="1" stroke-linecap="square" stroke-linejoin="bevel" transform="matrix(-0.997753,1.0786e-14,-1.0786e-14,-0.997753,116.462,425.439)"
font-family="MS Shell Dlg 2" font-size="11" font-weight="400" font-style="normal"
>
</g>

<g fill="none" stroke="#000000" stroke-opacity="1" stroke-width="1" stroke-linecap="square" stroke-linejoin="bevel" transform="matrix(0.997753,0,0,0.997753,8206.07,394.559)"
font-family="MS Shell Dlg 2" font-size="11" font-weight="400" font-style="normal"
>
</g>

<g fill="none" stroke="#ff0000" stroke-opacity="1" stroke-width="1" stroke-linecap="round" stroke-linejoin="round" transform="matrix(0.997753,0,0,0.997753,8206.07,394.559)"
font-family="MS Shell Dlg 2" font-size="11" font-weight="400" font-style="normal"
>
<path vector-effect="non-scaling-stroke" fill-rule="evenodd" d="M-8107.83,231.967 L-8107.83,30.95"/>
</g>

<g fill="none" stroke="#000000" stroke-opacity="1" stroke-width="1" stroke-linecap="square" stroke-linejoin="bevel" transform="matrix(0.997753,0,0,0.997753,8206.07,394.559)"
font-family="MS Shell Dlg 2" font-size="11" font-weight="400" font-style="normal"
>
</g>

<g fill="none" stroke="#000000" stroke-opacity="1" stroke-width="1" stroke-linecap="square" stroke-linejoin="bevel" transform="matrix(0.997753,0,0,0.997753,14.6692,146.717)"
font-family="MS Shell Dlg 2" font-size="11" font-weight="400" font-style="normal"
>
</g>

<g fill="#65c874" fill-opacity="1" stroke="#ff0000" stroke-opacity="1" stroke-width="1" stroke-linecap="square" stroke-linejoin="bevel" transform="matrix(0.997753,0,0,0.997753,14.6692,146.717)"
font-family="MS Shell Dlg 2" font-size="11" font-weight="400" font-style="normal"
>
<path vector-effect="non-scaling-stroke" fill-rule="evenodd" d="M0,0 L279,0 L279,90 L0,90 L0,0"/>
</g>

<g fill="#65c874" fill-opacity="1" stroke="#000000" stroke-opacity="1" stroke-width="1" stroke-linecap="square" stroke-linejoin="bevel" transform="matrix(0.997753,0,0,0.997753,14.6692,146.717)"
font-family="Sans Serif" font-size="34.6667" font-weight="700" font-style="normal"
>
<text fill="#000000" fill-opacity="1" stroke="none" xml:space="preserve" x="42" y="56.0469" font-family="Sans Serif" font-size="34.6667" font-weight="700" font-style="normal"
 >background</text>
</g>

<g fill="none" stroke="#000000" stroke-opacity="1" stroke-width="1" stroke-linecap="square" stroke-linejoin="bevel" transform="matrix(0.997753,0,0,0.997753,14.6692,146.717)"
font-family="MS Shell Dlg 2" font-size="11" font-weight="400" font-style="normal"
>
</g>

<g fill="none" stroke="#000000" stroke-opacity="1" stroke-width="1" stroke-linecap="square" stroke-linejoin="bevel" transform="matrix(0.997753,0,0,0.997753,8206.07,394.559)"
font-family="MS Shell Dlg 2" font-size="11" font-weight="400" font-style="normal"
>
</g>

<g fill="none" stroke="#000000" stroke-opacity="1" stroke-width="1" stroke-linecap="square" stroke-linejoin="bevel" transform="matrix(0.997753,0,0,0.997753,8206.07,394.559)"
font-family="MS Shell Dlg 2" font-size="11" font-weight="400" font-style="normal"
>
</g>

<g fill="none" stroke="#000000" stroke-opacity="1" stroke-width="1" stroke-linecap="square" stroke-linejoin="bevel" transform="matrix(0.723627,-0.686932,0.686932,0.723627,379.563,327.657)"
font-family="MS Shell Dlg 2" font-size="11" font-weight="400" font-style="normal"
>
</g>

<g fill="#aa8822" fill-opacity="0" stroke="#ff0000" stroke-opacity="1" stroke-width="1" stroke-linecap="round" stroke-linejoin="round" transform="matrix(0.723627,-0.686932,0.686932,0.723627,379.563,327.657)"
font-family="MS Shell Dlg 2" font-size="11" font-weight="400" font-style="normal"
>
<path vector-effect="non-scaling-stroke" fill-rule="evenodd" d="M-6,0 L0,10 L6,0 L-6,0"/>
</g>

<g fill="none" stroke="#000000" stroke-opacity="1" stroke-width="1" stroke-linecap="square" stroke-linejoin="bevel" transform="matrix(0.723627,-0.686932,0.686932,0.723627,379.563,327.657)"
font-family="MS Shell Dlg 2" font-size="11" font-weight="400" font-style="normal"
>
</g>

<g fill="none" stroke="#000000" stroke-opacity="1" stroke-width="1" stroke-linecap="square" stroke-linejoin="bevel" transform="matrix(0.997753,0,0,0.997753,8206.07,394.559)"
font-family="MS Shell Dlg 2" font-size="11" font-weight="400" font-style="normal"
>
</g>

<g fill="none" stroke="#ff0000" stroke-opacity="1" stroke-width="1" stroke-linecap="round" stroke-linejoin="round" transform="matrix(0.997753,0,0,0.997753,8206.07,394.559)"
font-family="MS Shell Dlg 2" font-size="11" font-weight="400" font-style="normal"
>
<path vector-effect="non-scaling-stroke" fill-rule="evenodd" d="M-7930.85,-158.4 L-7844.13,-67.0526"/>
</g>

<g fill="none" stroke="#000000" stroke-opacity="1" stroke-width="1" stroke-linecap="square" stroke-linejoin="bevel" transform="matrix(0.997753,0,0,0.997753,8206.07,394.559)"
font-family="MS Shell Dlg 2" font-size="11" font-weight="400" font-style="normal"
>
</g>

<g fill="none" stroke="#000000" stroke-opacity="1" stroke-width="1" stroke-linecap="square" stroke-linejoin="bevel" transform="matrix(0.997753,0,0,0.997753,8206.07,394.559)"
font-family="MS Shell Dlg 2" font-size="11" font-weight="400" font-style="normal"
>
</g>

<g fill="none" stroke="#000000" stroke-opacity="1" stroke-width="1" stroke-linecap="square" stroke-linejoin="bevel" transform="matrix(0.997753,0,0,0.997753,8206.07,394.559)"
font-family="MS Shell Dlg 2" font-size="11" font-weight="400" font-style="normal"
>
</g>

<g fill="none" stroke="#000000" stroke-opacity="1" stroke-width="1" stroke-linecap="square" stroke-linejoin="bevel" transform="matrix(0.997753,0,0,0.997753,488.827,134)"
font-family="MS Shell Dlg 2" font-size="11" font-weight="400" font-style="normal"
>
</g>

<g fill="#aa8822" fill-opacity="0" stroke="#ff0000" stroke-opacity="1" stroke-width="1" stroke-linecap="round" stroke-linejoin="round" transform="matrix(0.997753,0,0,0.997753,488.827,134)"
font-family="MS Shell Dlg 2" font-size="11" font-weight="400" font-style="normal"
>
<path vector-effect="non-scaling-stroke" fill-rule="evenodd" d="M-6,0 L0,10 L6,0 L-6,0"/>
</g>

<g fill="none" stroke="#000000" stroke-opacity="1" stroke-width="1" stroke-linecap="square" stroke-linejoin="bevel" transform="matrix(0.997753,0,0,0.997753,488.827,134)"
font-family="MS Shell Dlg 2" font-size="11" font-weight="400" font-style="normal"
>
</g>

<g fill="none" stroke="#000000" stroke-opacity="1" stroke-width="1" stroke-linecap="square" stroke-linejoin="bevel" transform="matrix(0.997753,0,0,0.997753,8206.07,394.559)"
font-family="MS Shell Dlg 2" font-size="11" font-weight="400" font-style="normal"
>
</g>

<g fill="none" stroke="#ff0000" stroke-opacity="1" stroke-width="1" stroke-linecap="round" stroke-linejoin="round" transform="matrix(0.997753,0,0,0.997753,8206.07,394.559)"
font-family="MS Shell Dlg 2" font-size="11" font-weight="400" font-style="normal"
>
<path vector-effect="non-scaling-stroke" fill-rule="evenodd" d="M-7734.62,-314.348 L-7734.62,-261.146"/>
</g>

<g fill="none" stroke="#000000" stroke-opacity="1" stroke-width="1" stroke-linecap="square" stroke-linejoin="bevel" transform="matrix(0.997753,0,0,0.997753,8206.07,394.559)"
font-family="MS Shell Dlg 2" font-size="11" font-weight="400" font-style="normal"
>
</g>

<g fill="none" stroke="#000000" stroke-opacity="1" stroke-width="1" stroke-linecap="square" stroke-linejoin="bevel" transform="matrix(0.997753,0,0,0.997753,8206.07,394.559)"
font-family="MS Shell Dlg 2" font-size="11" font-weight="400" font-style="normal"
>
</g>

<g fill="none" stroke="#000000" stroke-opacity="1" stroke-width="1" stroke-linecap="square" stroke-linejoin="bevel" transform="matrix(0.997753,0,0,0.997753,8206.07,394.559)"
font-family="MS Shell Dlg 2" font-size="11" font-weight="400" font-style="normal"
>
</g>

<g fill="none" stroke="#000000" stroke-opacity="1" stroke-width="1" stroke-linecap="square" stroke-linejoin="bevel" transform="matrix(-0.997753,-5.58542e-14,5.58542e-14,-0.997753,116.462,720.304)"
font-family="MS Shell Dlg 2" font-size="11" font-weight="400" font-style="normal"
>
</g>

<g fill="#aa8822" fill-opacity="0" stroke="#ff0000" stroke-opacity="1" stroke-width="1" stroke-linecap="round" stroke-linejoin="round" transform="matrix(-0.997753,-5.58542e-14,5.58542e-14,-0.997753,116.462,720.304)"
font-family="MS Shell Dlg 2" font-size="11" font-weight="400" font-style="normal"
>
<path vector-effect="non-scaling-stroke" fill-rule="evenodd" d="M-6,0 L0,10 L6,0 L-6,0"/>
</g>

<g fill="none" stroke="#000000" stroke-opacity="1" stroke-width="1" stroke-linecap="square" stroke-linejoin="bevel" transform="matrix(-0.997753,-5.58542e-14,5.58542e-14,-0.997753,116.462,720.304)"
font-family="MS Shell Dlg 2" font-size="11" font-weight="400" font-style="normal"
>
</g>

<g fill="none" stroke="#000000" stroke-opacity="1" stroke-width="1" stroke-linecap="square" stroke-linejoin="bevel" transform="matrix(0.997753,0,0,0.997753,8206.07,394.559)"
font-family="MS Shell Dlg 2" font-size="11" font-weight="400" font-style="normal"
>
</g>

<g fill="none" stroke="#ff0000" stroke-opacity="1" stroke-width="1" stroke-linecap="round" stroke-linejoin="round" transform="matrix(0.997753,0,0,0.997753,8206.07,394.559)"
font-family="MS Shell Dlg 2" font-size="11" font-weight="400" font-style="normal"
>
<path vector-effect="non-scaling-stroke" fill-rule="evenodd" d="M-8107.83,412.171 L-8107.83,326.479"/>
</g>

<g fill="none" stroke="#000000" stroke-opacity="1" stroke-width="1" stroke-linecap="square" stroke-linejoin="bevel" transform="matrix(0.997753,0,0,0.997753,8206.07,394.559)"
font-family="MS Shell Dlg 2" font-size="11" font-weight="400" font-style="normal"
>
</g>

<g fill="none" stroke="#000000" stroke-opacity="1" stroke-width="1" stroke-linecap="square" stroke-linejoin="bevel" transform="matrix(0.997753,0,0,0.997753,766.998,312.028)"
font-family="MS Shell Dlg 2" font-size="11" font-weight="400" font-style="normal"
>
</g>

<g fill="#65c874" fill-opacity="1" stroke="#ff0000" stroke-opacity="1" stroke-width="1" stroke-linecap="square" stroke-linejoin="bevel" transform="matrix(0.997753,0,0,0.997753,766.998,312.028)"
font-family="MS Shell Dlg 2" font-size="11" font-weight="400" font-style="normal"
>
<path vector-effect="non-scaling-stroke" fill-rule="evenodd" d="M0,0 L348,0 L348,165 L0,165 L0,0"/>
</g>

<g fill="#65c874" fill-opacity="1" stroke="#000000" stroke-opacity="1" stroke-width="1" stroke-linecap="square" stroke-linejoin="bevel" transform="matrix(0.997753,0,0,0.997753,766.998,312.028)"
font-family="Sans Serif" font-size="34.6667" font-weight="700" font-style="normal"
>
<text fill="#000000" fill-opacity="1" stroke="none" xml:space="preserve" x="120.5" y="94.125" font-family="Sans Serif" font-size="34.6667" font-weight="700" font-style="normal"
 >terrain</text>
</g>

<g fill="none" stroke="#000000" stroke-opacity="1" stroke-width="1" stroke-linecap="square" stroke-linejoin="bevel" transform="matrix(0.997753,0,0,0.997753,766.998,312.028)"
font-family="MS Shell Dlg 2" font-size="11" font-weight="400" font-style="normal"
>
</g>

<g fill="none" stroke="#000000" stroke-opacity="1" stroke-width="1" stroke-linecap="square" stroke-linejoin="bevel" transform="matrix(0.997753,0,0,0.997753,8206.07,394.559)"
font-family="MS Shell Dlg 2" font-size="11" font-weight="400" font-style="normal"
>
</g>

<g fill="none" stroke="#000000" stroke-opacity="1" stroke-width="1" stroke-linecap="square" stroke-linejoin="bevel" transform="matrix(0.997753,0,0,0.997753,8206.07,394.559)"
font-family="MS Shell Dlg 2" font-size="11" font-weight="400" font-style="normal"
>
</g>

<g fill="none" stroke="#000000" stroke-opacity="1" stroke-width="1" stroke-linecap="square" stroke-linejoin="bevel" transform="matrix(4.6465e-14,0.997753,-0.997753,4.6465e-14,582.498,388.644)"
font-family="MS Shell Dlg 2" font-size="11" font-weight="400" font-style="normal"
>
</g>

<g fill="#aa8822" fill-opacity="0" stroke="#ff0000" stroke-opacity="1" stroke-width="1" stroke-linecap="round" stroke-linejoin="round" transform="matrix(4.6465e-14,0.997753,-0.997753,4.6465e-14,582.498,388.644)"
font-family="MS Shell Dlg 2" font-size="11" font-weight="400" font-style="normal"
>
<path vector-effect="non-scaling-stroke" fill-rule="evenodd" d="M-6,0 L0,10 L6,0 L-6,0"/>
</g>

<g fill="none" stroke="#000000" stroke-opacity="1" stroke-width="1" stroke-linecap="square" stroke-linejoin="bevel" transform="matrix(4.6465e-14,0.997753,-0.997753,4.6465e-14,582.498,388.644)"
font-family="MS Shell Dlg 2" font-size="11" font-weight="400" font-style="normal"
>
</g>

<g fill="none" stroke="#000000" stroke-opacity="1" stroke-width="1" stroke-linecap="square" stroke-linejoin="bevel" transform="matrix(0.997753,0,0,0.997753,8206.07,394.559)"
font-family="MS Shell Dlg 2" font-size="11" font-weight="400" font-style="normal"
>
</g>

<g fill="none" stroke="#ff0000" stroke-opacity="1" stroke-width="1" stroke-linecap="round" stroke-linejoin="round" transform="matrix(0.997753,0,0,0.997753,8206.07,394.559)"
font-family="MS Shell Dlg 2" font-size="11" font-weight="400" font-style="normal"
>
<path vector-effect="non-scaling-stroke" fill-rule="evenodd" d="M-7455.83,-5.92737 L-7640.74,-5.92738"/>
</g>

<g fill="none" stroke="#000000" stroke-opacity="1" stroke-width="1" stroke-linecap="square" stroke-linejoin="bevel" transform="matrix(0.997753,0,0,0.997753,8206.07,394.559)"
font-family="MS Shell Dlg 2" font-size="11" font-weight="400" font-style="normal"
>
</g>

<g fill="none" stroke="#000000" stroke-opacity="1" stroke-width="1" stroke-linecap="square" stroke-linejoin="bevel" transform="matrix(0.997753,0,0,0.997753,386.432,334.893)"
font-family="MS Shell Dlg 2" font-size="11" font-weight="400" font-style="normal"
>
</g>

<g fill="#65c874" fill-opacity="1" stroke="#ff0000" stroke-opacity="1" stroke-width="1" stroke-linecap="square" stroke-linejoin="bevel" transform="matrix(0.997753,0,0,0.997753,386.432,334.893)"
font-family="MS Shell Dlg 2" font-size="11" font-weight="400" font-style="normal"
>
<path vector-effect="non-scaling-stroke" fill-rule="evenodd" d="M0,0 L186,0 L186,104 L0,104 L0,0"/>
</g>

<g fill="#65c874" fill-opacity="1" stroke="#000000" stroke-opacity="1" stroke-width="1" stroke-linecap="square" stroke-linejoin="bevel" transform="matrix(0.997753,0,0,0.997753,386.432,334.893)"
font-family="Sans Serif" font-size="34.6667" font-weight="700" font-style="normal"
>
<text fill="#000000" fill-opacity="1" stroke="none" xml:space="preserve" x="43" y="63.0625" font-family="Sans Serif" font-size="34.6667" font-weight="700" font-style="normal"
 >Image</text>
</g>

<g fill="none" stroke="#000000" stroke-opacity="1" stroke-width="1" stroke-linecap="square" stroke-linejoin="bevel" transform="matrix(0.997753,0,0,0.997753,386.432,334.893)"
font-family="MS Shell Dlg 2" font-size="11" font-weight="400" font-style="normal"
>
</g>

<g fill="none" stroke="#000000" stroke-opacity="1" stroke-width="1" stroke-linecap="square" stroke-linejoin="bevel" transform="matrix(0.997753,0,0,0.997753,8.72273,626.004)"
font-family="MS Shell Dlg 2" font-size="11" font-weight="400" font-style="normal"
>
</g>

<g fill="#ffff00" fill-opacity="1" stroke="#ff0000" stroke-opacity="1" stroke-width="1" stroke-linecap="square" stroke-linejoin="bevel" transform="matrix(0.997753,0,0,0.997753,8.72273,626.004)"
font-family="MS Shell Dlg 2" font-size="11" font-weight="400" font-style="normal"
>
<path vector-effect="non-scaling-stroke" fill-rule="evenodd" d="M0,0 L206,0 L206,84 L0,84 L0,0"/>
</g>

<g fill="#ffff00" fill-opacity="1" stroke="#000000" stroke-opacity="1" stroke-width="1" stroke-linecap="square" stroke-linejoin="bevel" transform="matrix(0.997753,0,0,0.997753,8.72273,626.004)"
font-family="Sans Serif" font-size="34.6667" font-weight="700" font-style="normal"
>
<text fill="#000000" fill-opacity="1" stroke="none" xml:space="preserve" x="10.5" y="53.0469" font-family="Sans Serif" font-size="34.6667" font-weight="700" font-style="normal"
 >physicsObj</text>
</g>

<g fill="none" stroke="#000000" stroke-opacity="1" stroke-width="1" stroke-linecap="square" stroke-linejoin="bevel" transform="matrix(0.997753,0,0,0.997753,8.72273,626.004)"
font-family="MS Shell Dlg 2" font-size="11" font-weight="400" font-style="normal"
>
</g>

<g fill="none" stroke="#000000" stroke-opacity="1" stroke-width="1" stroke-linecap="square" stroke-linejoin="bevel" transform="matrix(0.997753,0,0,0.997753,358.326,0.997753)"
font-family="MS Shell Dlg 2" font-size="11" font-weight="400" font-style="normal"
>
</g>

<g fill="#a8c863" fill-opacity="1" stroke="#ff0000" stroke-opacity="1" stroke-width="1" stroke-linecap="square" stroke-linejoin="bevel" transform="matrix(0.997753,0,0,0.997753,358.326,0.997753)"
font-family="MS Shell Dlg 2" font-size="11" font-weight="400" font-style="normal"
>
<path vector-effect="non-scaling-stroke" fill-rule="evenodd" d="M0,0 L257,0 L257,80 L0,80 L0,0"/>
</g>

<g fill="#a8c863" fill-opacity="1" stroke="#000000" stroke-opacity="1" stroke-width="1" stroke-linecap="square" stroke-linejoin="bevel" transform="matrix(0.997753,0,0,0.997753,358.326,0.997753)"
font-family="Sans Serif" font-size="34.6667" font-weight="700" font-style="normal"
>
<text fill="#000000" fill-opacity="1" stroke="none" xml:space="preserve" x="71" y="51.0312" font-family="Sans Serif" font-size="34.6667" font-weight="700" font-style="normal"
 >missile</text>
</g>

<g fill="none" stroke="#000000" stroke-opacity="1" stroke-width="1" stroke-linecap="square" stroke-linejoin="bevel" transform="matrix(0.997753,0,0,0.997753,358.326,0.997753)"
font-family="MS Shell Dlg 2" font-size="11" font-weight="400" font-style="normal"
>
</g>

<g fill="none" stroke="#000000" stroke-opacity="1" stroke-width="1" stroke-linecap="square" stroke-linejoin="bevel" transform="matrix(0.997753,0,0,0.997753,0.997753,805.804)"
font-family="MS Shell Dlg 2" font-size="11" font-weight="400" font-style="normal"
>
</g>

<g fill="#a8c863" fill-opacity="1" stroke="#ff0000" stroke-opacity="1" stroke-width="1" stroke-linecap="square" stroke-linejoin="bevel" transform="matrix(0.997753,0,0,0.997753,0.997753,805.804)"
font-family="MS Shell Dlg 2" font-size="11" font-weight="400" font-style="normal"
>
<path vector-effect="non-scaling-stroke" fill-rule="evenodd" d="M0,0 L221,0 L221,96 L0,96 L0,0"/>
</g>

<g fill="#a8c863" fill-opacity="1" stroke="#000000" stroke-opacity="1" stroke-width="1" stroke-linecap="square" stroke-linejoin="bevel" transform="matrix(0.997753,0,0,0.997753,0.997753,805.804)"
font-family="Sans Serif" font-size="34.6667" font-weight="700" font-style="normal"
>
<text fill="#000000" fill-opacity="1" stroke="none" xml:space="preserve" x="34" y="59.0469" font-family="Sans Serif" font-size="34.6667" font-weight="700" font-style="normal"
 >projectile</text>
</g>

<g fill="none" stroke="#000000" stroke-opacity="1" stroke-width="1" stroke-linecap="square" stroke-linejoin="bevel" transform="matrix(0.997753,0,0,0.997753,0.997753,805.804)"
font-family="MS Shell Dlg 2" font-size="11" font-weight="400" font-style="normal"
>
</g>

<g fill="none" stroke="#000000" stroke-opacity="1" stroke-width="1" stroke-linecap="square" stroke-linejoin="bevel" transform="matrix(0.997753,0,0,0.997753,753.278,60.6806)"
font-family="MS Shell Dlg 2" font-size="11" font-weight="400" font-style="normal"
>
</g>

<g fill="#65c874" fill-opacity="1" stroke="#ff0000" stroke-opacity="1" stroke-width="1" stroke-linecap="square" stroke-linejoin="bevel" transform="matrix(0.997753,0,0,0.997753,753.278,60.6806)"
font-family="MS Shell Dlg 2" font-size="11" font-weight="400" font-style="normal"
>
<path vector-effect="non-scaling-stroke" fill-rule="evenodd" d="M0,0 L282,0 L282,120 L0,120 L0,0"/>
</g>

<g fill="#65c874" fill-opacity="1" stroke="#000000" stroke-opacity="1" stroke-width="1" stroke-linecap="square" stroke-linejoin="bevel" transform="matrix(0.997753,0,0,0.997753,753.278,60.6806)"
font-family="Sans Serif" font-size="34.6667" font-weight="700" font-style="normal"
>
<text fill="#000000" fill-opacity="1" stroke="none" xml:space="preserve" x="61" y="71.0781" font-family="Sans Serif" font-size="34.6667" font-weight="700" font-style="normal"
 >animation</text>
</g>

<g fill="none" stroke="#000000" stroke-opacity="1" stroke-width="1" stroke-linecap="square" stroke-linejoin="bevel" transform="matrix(0.997753,0,0,0.997753,753.278,60.6806)"
font-family="MS Shell Dlg 2" font-size="11" font-weight="400" font-style="normal"
>
</g>

<g fill="none" stroke="#000000" stroke-opacity="1" stroke-width="1" stroke-linecap="square" stroke-linejoin="bevel" transform="matrix(1,0,0,1,0,0)"
font-family="MS Shell Dlg 2" font-size="11" font-weight="400" font-style="normal"
>
</g>
</g>
</svg>
